<svg width="25" height="24" viewBox="0 0 25 24" fill="none" xmlns="http://www.w3.org/2000/svg">
<path fill-rule="evenodd" clip-rule="evenodd" d="M12.5 22C18.0228 22 22.5 17.5228 22.5 12C22.5 6.47715 18.0228 2 12.5 2C6.97715 2 2.5 6.47715 2.5 12C2.5 17.5228 6.97715 22 12.5 22ZM18.2071 9.70711C18.5976 9.31658 18.5976 8.68342 18.2071 8.29289C17.8166 7.90237 17.1834 7.90237 16.7929 8.29289L11.5 13.5858L8.70711 10.7929C8.31658 10.4024 7.68342 10.4024 7.29289 10.7929C6.90237 11.1834 6.90237 11.8166 7.29289 12.2071L11.5 16.4142L18.2071 9.70711Z" fill="#EBF0F5"/>
</svg>
