<svg width="33" height="32" viewBox="0 0 33 32" fill="none" xmlns="http://www.w3.org/2000/svg">
<path fill-rule="evenodd" clip-rule="evenodd" d="M29.8327 15.9998C29.8327 23.3636 23.8631 29.3332 16.4993 29.3332C9.13555 29.3332 3.16602 23.3636 3.16602 15.9998C3.16602 8.63604 9.13555 2.6665 16.4993 2.6665C23.8631 2.6665 29.8327 8.63604 29.8327 15.9998ZM11.5565 11.057C12.0772 10.5363 12.9215 10.5363 13.4422 11.057L16.4993 14.1142L19.5565 11.057C20.0772 10.5363 20.9215 10.5363 21.4422 11.057C21.9629 11.5777 21.9629 12.4219 21.4422 12.9426L18.385 15.9998L21.4422 19.057C21.9629 19.5777 21.9629 20.4219 21.4422 20.9426C20.9215 21.4633 20.0772 21.4633 19.5565 20.9426L16.4993 17.8855L13.4422 20.9426C12.9215 21.4633 12.0772 21.4633 11.5565 20.9426C11.0358 20.4219 11.0358 19.5777 11.5565 19.057L14.6137 15.9998L11.5565 12.9426C11.0358 12.4219 11.0358 11.5777 11.5565 11.057Z" fill="#AA2C42"/>
</svg>
