<svg width="28" height="28" viewBox="0 0 28 28" fill="none" xmlns="http://www.w3.org/2000/svg">
<path fill-rule="evenodd" clip-rule="evenodd" d="M13.1769 0.666504C12.5044 0.666504 11.9372 1.16722 11.8538 1.83446L11.6336 3.59655C10.4399 3.86691 9.32218 4.33745 8.31759 4.97102L6.91505 3.88016C6.38426 3.46733 5.62913 3.51434 5.15365 3.98982L3.98982 5.15366C3.51434 5.62914 3.46732 6.38427 3.88016 6.91505L4.97102 8.31759C4.33745 9.32219 3.86691 10.4399 3.59655 11.6336L1.83446 11.8538C1.16722 11.9372 0.666504 12.5044 0.666504 13.1769V14.8228C0.666504 15.4952 1.16722 16.0624 1.83446 16.1458L3.59655 16.3661C3.86691 17.5598 4.33745 18.6775 4.97102 19.6821L3.88016 21.0846C3.46733 21.6154 3.51434 22.3705 3.98982 22.846L5.15366 24.0099C5.62914 24.4853 6.38427 24.5324 6.91505 24.1195L8.31759 23.0287C9.32219 23.6622 10.4399 24.1328 11.6336 24.4031L11.8538 26.1652C11.9372 26.8325 12.5044 27.3332 13.1769 27.3332H14.8228C15.4952 27.3332 16.0624 26.8325 16.1458 26.1652L16.3661 24.4031C17.5598 24.1328 18.6775 23.6622 19.6821 23.0287L21.0846 24.1195C21.6154 24.5323 22.3705 24.4853 22.846 24.0099L24.0099 22.846C24.4853 22.3705 24.5323 21.6154 24.1195 21.0846L23.0287 19.6821C23.6622 18.6775 24.1328 17.5598 24.4031 16.3661L26.1652 16.1458C26.8325 16.0624 27.3332 15.4952 27.3332 14.8228V13.1769C27.3332 12.5044 26.8325 11.9372 26.1652 11.8538L24.4031 11.6336C24.1328 10.4399 23.6622 9.32218 23.0287 8.31759L24.1195 6.91505C24.5323 6.38426 24.4853 5.62913 24.0099 5.15365L22.846 3.98982C22.3705 3.51434 21.6154 3.46732 21.0846 3.88016L19.6821 4.97102C18.6775 4.33745 17.5598 3.86691 16.3661 3.59655L16.1458 1.83446C16.0624 1.16722 15.4952 0.666504 14.8228 0.666504H13.1769ZM13.9998 9.99984C16.209 9.99984 17.9998 11.7907 17.9998 13.9998C17.9998 16.209 16.209 17.9998 13.9998 17.9998C11.7907 17.9998 9.99984 16.209 9.99984 13.9998C9.99984 11.7907 11.7907 9.99984 13.9998 9.99984Z" fill="#828795"/>
</svg>
