<svg width="33" height="32" viewBox="0 0 33 32" fill="none" xmlns="http://www.w3.org/2000/svg">
<path d="M6.08147 4.55845C6.50948 3.95924 7.34221 3.82045 7.94143 4.24846L16.4998 10.3616L25.0581 4.24846C25.6573 3.82045 26.4901 3.95924 26.9181 4.55845C27.3461 5.15767 27.2073 5.9904 26.6081 6.41841L16.4998 13.6386L6.39146 6.41841C5.79224 5.9904 5.65345 5.15767 6.08147 4.55845Z" fill="#828795"/>
<path d="M27.1664 16.0001C27.1664 16.7365 26.5695 17.3334 25.8331 17.3334H7.16644C6.43006 17.3334 5.83311 16.7365 5.83311 16.0001C5.83311 15.2637 6.43006 14.6668 7.16644 14.6668H25.8331C26.5695 14.6668 27.1664 15.2637 27.1664 16.0001Z" fill="#828795"/>
<path d="M25.0581 27.7517C25.6573 28.1798 26.4901 28.041 26.9181 27.4418C27.3461 26.8425 27.2073 26.0098 26.6081 25.5818L16.4998 18.3616L6.39146 25.5818C5.79224 26.0098 5.65345 26.8425 6.08147 27.4418C6.50948 28.041 7.34221 28.1798 7.94143 27.7517L16.4998 21.6386L25.0581 27.7517Z" fill="#828795"/>
</svg>
