<svg width="33" height="32" viewBox="0 0 33 32" fill="none" xmlns="http://www.w3.org/2000/svg">
<path d="M16.9077 28H15.3908C14.8707 28 14.445 27.6005 14.4493 27.0804C14.4512 26.8446 14.4562 26.6019 14.4608 26.3742C14.4659 26.1255 14.4706 25.8948 14.4706 25.7106C14.4706 24.0684 12.7227 24.366 11.3394 24.6015C10.9059 24.6753 10.5082 24.743 10.2114 24.743C9.79998 24.743 8.63185 24.2191 8.44484 23.1344C8.34542 22.5577 8.30969 22.0907 8.28117 21.7179C8.25604 21.3895 8.23651 21.1342 8.18396 20.9415C8.15935 20.8513 8.13407 20.7095 8.10385 20.54C8.02833 20.1165 7.92197 19.52 7.71817 19.1227C7.77799 19.0864 7.83941 19.0489 7.90242 19.0101C8.67825 18.5327 10.3218 17.3337 11.1907 17.3337C12.2568 17.3337 13.8598 17.676 15.1649 18.0104C16.47 18.3448 17.9673 18.8094 17.7572 20.34C17.6913 20.8204 17.6125 21.6355 17.5182 22.6107C17.3616 24.2318 17.1621 26.2956 16.9077 28Z" fill="#828795"/>
<path d="M19.2753 28C19.2753 26.0785 19.1843 20.54 19.1843 19.3535C19.3049 18.1781 18.8917 14.6951 15.9864 13.6944C13.6787 12.8995 11.2647 14.3969 9.94942 15.2126C9.73402 15.3462 9.5481 15.4615 9.39694 15.5455C8.73218 15.9148 7.85225 16.7597 7.0164 17.5623C6.85804 17.7144 6.70126 17.8649 6.54782 18.0104C6.21752 17.4068 6.68273 16.8539 6.94349 16.544C6.96942 16.5132 6.99332 16.4848 7.01422 16.4589C7.06362 16.3979 7.12716 16.3374 7.1985 16.2694C7.58337 15.9025 8.19518 15.3194 8.03743 13.2814C7.85044 10.8658 8.80213 4 16.9636 4C26.1636 4 27.2142 11.2762 26.6304 14.033C26.3603 15.3087 25.888 16.0901 25.441 16.8298C24.8447 17.8164 24.2933 18.7288 24.3262 20.6408C24.3622 22.7281 24.615 25.2222 24.8174 26.8536C24.8924 27.4588 24.4236 28 23.8138 28H19.2753Z" fill="#828795"/>
</svg>
