<svg width="33" height="32" viewBox="0 0 33 32" fill="none" xmlns="http://www.w3.org/2000/svg">
<path d="M24.9848 22.5997L23.0992 24.4853C22.5785 25.006 21.7342 25.006 21.2135 24.4853L14.6139 17.8856C14.0932 17.3649 14.0932 16.5207 14.6139 16L15.5567 15.0572C16.0774 14.5365 16.0774 13.6923 15.5567 13.1716C15.036 12.6509 14.1918 12.6509 13.6711 13.1716L12.7283 14.1144C11.1662 15.6765 11.1662 18.2091 12.7283 19.7712L19.3279 26.3709C20.89 27.933 23.4227 27.933 24.9848 26.3709L26.8704 24.4853C28.4325 22.9232 28.4325 20.3905 26.8704 18.8284L24.5134 16.4714C23.9927 15.9507 23.1485 15.9507 22.6278 16.4714C22.1071 16.9921 22.1071 17.8363 22.6278 18.357L24.9848 20.714C25.5055 21.2347 25.5055 22.079 24.9848 22.5997Z" fill="#828795"/>
<path d="M8.01422 9.40033L9.89984 7.51471C10.4205 6.99401 11.2648 6.99401 11.7855 7.51471L18.3851 14.1144C18.9058 14.6351 18.9058 15.4793 18.3851 16L17.4423 16.9428C16.9216 17.4635 16.9216 18.3077 17.4423 18.8284C17.963 19.3491 18.8072 19.3491 19.3279 18.8284L20.2707 17.8856C21.8328 16.3235 21.8328 13.7909 20.2707 12.2288L13.6711 5.62909C12.109 4.067 9.57632 4.067 8.01422 5.62909L6.1286 7.51471C4.56651 9.07681 4.56651 11.6095 6.1286 13.1716L8.48563 15.5286C9.00633 16.0493 9.85055 16.0493 10.3712 15.5286C10.8919 15.0079 10.8919 14.1637 10.3712 13.643L8.01422 11.2859C7.49352 10.7652 7.49352 9.92103 8.01422 9.40033Z" fill="#828795"/>
</svg>
