<svg width="64" height="64" viewBox="0 0 64 64" fill="none" xmlns="http://www.w3.org/2000/svg">
<path d="M14 22C14 20.8954 14.8954 20 16 20H48C49.1046 20 50 20.8954 50 22C50 23.1046 49.1046 24 48 24H16C14.8954 24 14 23.1046 14 22Z" fill="#F7F9FB"/>
<path d="M14 32C14 30.8954 14.8954 30 16 30H48C49.1046 30 50 30.8954 50 32C50 33.1046 49.1046 34 48 34H16C14.8954 34 14 33.1046 14 32Z" fill="#F7F9FB"/>
<path d="M16 40C14.8954 40 14 40.8954 14 42C14 43.1046 14.8954 44 16 44H48C49.1046 44 50 43.1046 50 42C50 40.8954 49.1046 40 48 40H16Z" fill="#F7F9FB"/>
</svg>
