<svg width="25" height="24" viewBox="0 0 25 24" fill="none" xmlns="http://www.w3.org/2000/svg">
<path d="M12.5 22C18.0228 22 22.5 17.5228 22.5 12C22.5 6.47715 18.0228 2 12.5 2C6.97715 2 2.5 6.47715 2.5 12C2.5 13.0525 2.66259 14.067 2.96402 15.0197L8.42787 9.55589L12.4279 13.5559L15.6527 10.331L14.2515 8.92976C13.961 8.63922 14.1254 8.1417 14.5319 8.08159L20.0167 7.27036L19.2055 12.7552C19.1454 13.1617 18.6479 13.3261 18.3573 13.0356L17.067 11.7452L12.4279 16.3843L8.42787 12.3843L3.82844 16.9837C5.55516 19.9817 8.79188 22 12.5 22Z" fill="#EBF0F5"/>
</svg>
